{
	"asset":{
		"generator":"Khronos glTF Blender I/O v3.6.27",
		"version":"2.0"
	},
	"scene":0,
	"scenes":[
		{
			"name":"Scene",
			"nodes":[
				0,
				1,
				2,
				3,
				4,
				5,
				6,
				7,
				8,
				9,
				10,
				11,
				12,
				13,
				14,
				15,
				16
			]
		}
	],
	"nodes":[
		{
			"mesh":0,
			"name":"Plane",
			"rotation":[
				0,
				0,
				-0.7071068286895752,
				0.7071068286895752
			],
			"scale":[
				50,
				1,
				19.200000762939453
			],
			"translation":[
				0,
				50,
				0
			]
		},
		{
			"mesh":1,
			"name":"Cube",
			"scale":[
				0.7799149751663208,
				1,
				1
			],
			"translation":[
				0.9270354509353638,
				90.45307922363281,
				11.201498031616211
			]
		},
		{
			"mesh":2,
			"name":"Cylinder.012",
			"rotation":[
				0.3641870319843292,
				0.6061087250709534,
				0.3641870617866516,
				0.6061088442802429
			],
			"translation":[
				1.084411382675171,
				46.17021942138672,
				0
			]
		},
		{
			"mesh":3,
			"name":"Cylinder",
			"rotation":[
				0,
				0,
				0.7071068286895752,
				0.7071068286895752
			],
			"translation":[
				1.2729920148849487,
				70.89361572265625,
				2.144680976867676
			]
		},
		{
			"mesh":4,
			"name":"Cylinder.001",
			"rotation":[
				0,
				0,
				0.7071068286895752,
				0.7071068286895752
			],
			"translation":[
				1.2729920148849487,
				70.89361572265625,
				-2.9787232875823975
			]
		},
		{
			"mesh":5,
			"name":"Cylinder.002",
			"rotation":[
				0,
				0,
				0.7071068286895752,
				0.7071068286895752
			],
			"translation":[
				1.2729920148849487,
				70.89361572265625,
				-14.178723335266113
			]
		},
		{
			"mesh":6,
			"name":"Cylinder.003",
			"rotation":[
				0,
				0,
				0.7071068286895752,
				0.7071068286895752
			],
			"translation":[
				1.2729920148849487,
				70.89361572265625,
				-8.936169624328613
			]
		},
		{
			"mesh":7,
			"name":"Cylinder.004",
			"rotation":[
				0,
				0,
				0.7071068286895752,
				0.7071068286895752
			],
			"translation":[
				1.2729920148849487,
				66.485107421875,
				-11.080850601196289
			]
		},
		{
			"mesh":8,
			"name":"Cylinder.005",
			"rotation":[
				0,
				0,
				0.7071068286895752,
				0.7071068286895752
			],
			"translation":[
				1.2729920148849487,
				66.485107421875,
				-16.32340431213379
			]
		},
		{
			"mesh":9,
			"name":"Cylinder.006",
			"rotation":[
				0,
				0,
				0.7071068286895752,
				0.7071068286895752
			],
			"translation":[
				1.2729920148849487,
				66.485107421875,
				-5.123404502868652
			]
		},
		{
			"mesh":10,
			"name":"Cylinder.007",
			"rotation":[
				0,
				0,
				0.7071068286895752,
				0.7071068286895752
			],
			"translation":[
				1.2729920148849487,
				66.485107421875,
				0
			]
		},
		{
			"mesh":11,
			"name":"Cylinder.008",
			"rotation":[
				0,
				0,
				0.7071068286895752,
				0.7071068286895752
			],
			"translation":[
				1.2729920148849487,
				61.71915054321289,
				2.382978677749634
			]
		},
		{
			"mesh":12,
			"name":"Cylinder.009",
			"rotation":[
				0,
				0,
				0.7071068286895752,
				0.7071068286895752
			],
			"translation":[
				1.2729920148849487,
				61.71915054321289,
				-2.7404258251190186
			]
		},
		{
			"mesh":13,
			"name":"Cylinder.010",
			"rotation":[
				0,
				0,
				0.7071068286895752,
				0.7071068286895752
			],
			"translation":[
				1.2729920148849487,
				61.71915054321289,
				-13.940425872802734
			]
		},
		{
			"mesh":14,
			"name":"Cylinder.011",
			"rotation":[
				0,
				0,
				0.7071068286895752,
				0.7071068286895752
			],
			"translation":[
				1.2729920148849487,
				61.71915054321289,
				-9.651063919067383
			]
		},
		{
			"mesh":15,
			"name":"Cylinder.013",
			"rotation":[
				0.6328141689300537,
				0.3155093789100647,
				0.6328142285346985,
				0.3155094087123871
			],
			"translation":[
				1.084411382675171,
				36.72380447387695,
				-5.171396255493164
			]
		},
		{
			"mesh":16,
			"name":"Cylinder.014",
			"rotation":[
				0.3079468905925751,
				0.6365286707878113,
				0.3079468607902527,
				0.6365286707878113
			],
			"translation":[
				1.084411382675171,
				28.104812622070312,
				3.861309051513672
			]
		}
	],
	"materials":[
		{
			"doubleSided":true,
			"name":"Material.001",
			"pbrMetallicRoughness":{
				"baseColorFactor":[
					0.005760608706623316,
					0.05596953257918358,
					0.005581751000136137,
					1
				],
				"metallicFactor":0,
				"roughnessFactor":0.5
			}
		},
		{
			"doubleSided":true,
			"name":"Material.002",
			"pbrMetallicRoughness":{
				"baseColorFactor":[
					0.17144113779067993,
					0.004024718888103962,
					0.004024718888103962,
					1
				],
				"metallicFactor":0,
				"roughnessFactor":0.5
			}
		}
	],
	"meshes":[
		{
			"name":"Plane",
			"primitives":[
				{
					"attributes":{
						"POSITION":0,
						"NORMAL":1
					},
					"indices":2,
					"material":0
				}
			]
		},
		{
			"name":"Cube.001",
			"primitives":[
				{
					"attributes":{
						"POSITION":3,
						"NORMAL":4
					},
					"indices":5,
					"material":1
				}
			]
		},
		{
			"name":"Cylinder.012",
			"primitives":[
				{
					"attributes":{
						"POSITION":6,
						"NORMAL":7
					},
					"indices":8,
					"material":1
				}
			]
		},
		{
			"name":"Cylinder",
			"primitives":[
				{
					"attributes":{
						"POSITION":9,
						"NORMAL":10
					},
					"indices":11,
					"material":1
				}
			]
		},
		{
			"name":"Cylinder.001",
			"primitives":[
				{
					"attributes":{
						"POSITION":12,
						"NORMAL":13
					},
					"indices":11,
					"material":1
				}
			]
		},
		{
			"name":"Cylinder.002",
			"primitives":[
				{
					"attributes":{
						"POSITION":14,
						"NORMAL":15
					},
					"indices":11,
					"material":1
				}
			]
		},
		{
			"name":"Cylinder.003",
			"primitives":[
				{
					"attributes":{
						"POSITION":16,
						"NORMAL":17
					},
					"indices":11,
					"material":1
				}
			]
		},
		{
			"name":"Cylinder.004",
			"primitives":[
				{
					"attributes":{
						"POSITION":18,
						"NORMAL":19
					},
					"indices":11,
					"material":1
				}
			]
		},
		{
			"name":"Cylinder.005",
			"primitives":[
				{
					"attributes":{
						"POSITION":20,
						"NORMAL":21
					},
					"indices":11,
					"material":1
				}
			]
		},
		{
			"name":"Cylinder.006",
			"primitives":[
				{
					"attributes":{
						"POSITION":22,
						"NORMAL":23
					},
					"indices":11,
					"material":1
				}
			]
		},
		{
			"name":"Cylinder.007",
			"primitives":[
				{
					"attributes":{
						"POSITION":24,
						"NORMAL":25
					},
					"indices":11,
					"material":1
				}
			]
		},
		{
			"name":"Cylinder.008",
			"primitives":[
				{
					"attributes":{
						"POSITION":26,
						"NORMAL":27
					},
					"indices":11,
					"material":1
				}
			]
		},
		{
			"name":"Cylinder.009",
			"primitives":[
				{
					"attributes":{
						"POSITION":28,
						"NORMAL":29
					},
					"indices":11,
					"material":1
				}
			]
		},
		{
			"name":"Cylinder.010",
			"primitives":[
				{
					"attributes":{
						"POSITION":30,
						"NORMAL":31
					},
					"indices":11,
					"material":1
				}
			]
		},
		{
			"name":"Cylinder.011",
			"primitives":[
				{
					"attributes":{
						"POSITION":32,
						"NORMAL":33
					},
					"indices":11,
					"material":1
				}
			]
		},
		{
			"name":"Cylinder.013",
			"primitives":[
				{
					"attributes":{
						"POSITION":34,
						"NORMAL":35
					},
					"indices":8,
					"material":1
				}
			]
		},
		{
			"name":"Cylinder.014",
			"primitives":[
				{
					"attributes":{
						"POSITION":36,
						"NORMAL":37
					},
					"indices":8,
					"material":1
				}
			]
		}
	],
	"accessors":[
		{
			"bufferView":0,
			"componentType":5126,
			"count":4,
			"max":[
				1,
				0,
				1
			],
			"min":[
				-1,
				0,
				-1
			],
			"type":"VEC3"
		},
		{
			"bufferView":1,
			"componentType":5126,
			"count":4,
			"type":"VEC3"
		},
		{
			"bufferView":2,
			"componentType":5123,
			"count":6,
			"type":"SCALAR"
		},
		{
			"bufferView":3,
			"componentType":5126,
			"count":36,
			"max":[
				1,
				1,
				1
			],
			"min":[
				-1,
				-4.74173641204834,
				-10.461248397827148
			],
			"type":"VEC3"
		},
		{
			"bufferView":4,
			"componentType":5126,
			"count":36,
			"type":"VEC3"
		},
		{
			"bufferView":5,
			"componentType":5123,
			"count":60,
			"type":"SCALAR"
		},
		{
			"bufferView":6,
			"componentType":5126,
			"count":128,
			"max":[
				0.03802037239074707,
				1,
				1
			],
			"min":[
				-1,
				-6.212008476257324,
				-1.0000003576278687
			],
			"type":"VEC3"
		},
		{
			"bufferView":7,
			"componentType":5126,
			"count":128,
			"type":"VEC3"
		},
		{
			"bufferView":8,
			"componentType":5123,
			"count":192,
			"type":"SCALAR"
		},
		{
			"bufferView":9,
			"componentType":5126,
			"count":192,
			"max":[
				1,
				1,
				1
			],
			"min":[
				-1,
				-1,
				-1
			],
			"type":"VEC3"
		},
		{
			"bufferView":10,
			"componentType":5126,
			"count":192,
			"type":"VEC3"
		},
		{
			"bufferView":11,
			"componentType":5123,
			"count":372,
			"type":"SCALAR"
		},
		{
			"bufferView":12,
			"componentType":5126,
			"count":192,
			"max":[
				1,
				1,
				1
			],
			"min":[
				-1,
				-1,
				-1
			],
			"type":"VEC3"
		},
		{
			"bufferView":13,
			"componentType":5126,
			"count":192,
			"type":"VEC3"
		},
		{
			"bufferView":14,
			"componentType":5126,
			"count":192,
			"max":[
				1,
				1,
				1
			],
			"min":[
				-1,
				-1,
				-1
			],
			"type":"VEC3"
		},
		{
			"bufferView":15,
			"componentType":5126,
			"count":192,
			"type":"VEC3"
		},
		{
			"bufferView":16,
			"componentType":5126,
			"count":192,
			"max":[
				1,
				1,
				1
			],
			"min":[
				-1,
				-1,
				-1
			],
			"type":"VEC3"
		},
		{
			"bufferView":17,
			"componentType":5126,
			"count":192,
			"type":"VEC3"
		},
		{
			"bufferView":18,
			"componentType":5126,
			"count":192,
			"max":[
				1,
				1,
				1
			],
			"min":[
				-1,
				-1,
				-1
			],
			"type":"VEC3"
		},
		{
			"bufferView":19,
			"componentType":5126,
			"count":192,
			"type":"VEC3"
		},
		{
			"bufferView":20,
			"componentType":5126,
			"count":192,
			"max":[
				1,
				1,
				1
			],
			"min":[
				-1,
				-1,
				-1
			],
			"type":"VEC3"
		},
		{
			"bufferView":21,
			"componentType":5126,
			"count":192,
			"type":"VEC3"
		},
		{
			"bufferView":22,
			"componentType":5126,
			"count":192,
			"max":[
				1,
				1,
				1
			],
			"min":[
				-1,
				-1,
				-1
			],
			"type":"VEC3"
		},
		{
			"bufferView":23,
			"componentType":5126,
			"count":192,
			"type":"VEC3"
		},
		{
			"bufferView":24,
			"componentType":5126,
			"count":192,
			"max":[
				1,
				1,
				1
			],
			"min":[
				-1,
				-1,
				-1
			],
			"type":"VEC3"
		},
		{
			"bufferView":25,
			"componentType":5126,
			"count":192,
			"type":"VEC3"
		},
		{
			"bufferView":26,
			"componentType":5126,
			"count":192,
			"max":[
				1,
				1,
				1
			],
			"min":[
				-1,
				-1,
				-1
			],
			"type":"VEC3"
		},
		{
			"bufferView":27,
			"componentType":5126,
			"count":192,
			"type":"VEC3"
		},
		{
			"bufferView":28,
			"componentType":5126,
			"count":192,
			"max":[
				1,
				1,
				1
			],
			"min":[
				-1,
				-1,
				-1
			],
			"type":"VEC3"
		},
		{
			"bufferView":29,
			"componentType":5126,
			"count":192,
			"type":"VEC3"
		},
		{
			"bufferView":30,
			"componentType":5126,
			"count":192,
			"max":[
				1,
				1,
				1
			],
			"min":[
				-1,
				-1,
				-1
			],
			"type":"VEC3"
		},
		{
			"bufferView":31,
			"componentType":5126,
			"count":192,
			"type":"VEC3"
		},
		{
			"bufferView":32,
			"componentType":5126,
			"count":192,
			"max":[
				1,
				1,
				1
			],
			"min":[
				-1,
				-1,
				-1
			],
			"type":"VEC3"
		},
		{
			"bufferView":33,
			"componentType":5126,
			"count":192,
			"type":"VEC3"
		},
		{
			"bufferView":34,
			"componentType":5126,
			"count":128,
			"max":[
				0.03802037239074707,
				1,
				1
			],
			"min":[
				-1,
				-6.212008476257324,
				-1.0000003576278687
			],
			"type":"VEC3"
		},
		{
			"bufferView":35,
			"componentType":5126,
			"count":128,
			"type":"VEC3"
		},
		{
			"bufferView":36,
			"componentType":5126,
			"count":128,
			"max":[
				0.03802037239074707,
				1,
				1
			],
			"min":[
				-1,
				-6.212008476257324,
				-1.0000003576278687
			],
			"type":"VEC3"
		},
		{
			"bufferView":37,
			"componentType":5126,
			"count":128,
			"type":"VEC3"
		}
	],
	"bufferViews":[
		{
			"buffer":0,
			"byteLength":48,
			"byteOffset":0,
			"target":34962
		},
		{
			"buffer":0,
			"byteLength":48,
			"byteOffset":48,
			"target":34962
		},
		{
			"buffer":0,
			"byteLength":12,
			"byteOffset":96,
			"target":34963
		},
		{
			"buffer":0,
			"byteLength":432,
			"byteOffset":108,
			"target":34962
		},
		{
			"buffer":0,
			"byteLength":432,
			"byteOffset":540,
			"target":34962
		},
		{
			"buffer":0,
			"byteLength":120,
			"byteOffset":972,
			"target":34963
		},
		{
			"buffer":0,
			"byteLength":1536,
			"byteOffset":1092,
			"target":34962
		},
		{
			"buffer":0,
			"byteLength":1536,
			"byteOffset":2628,
			"target":34962
		},
		{
			"buffer":0,
			"byteLength":384,
			"byteOffset":4164,
			"target":34963
		},
		{
			"buffer":0,
			"byteLength":2304,
			"byteOffset":4548,
			"target":34962
		},
		{
			"buffer":0,
			"byteLength":2304,
			"byteOffset":6852,
			"target":34962
		},
		{
			"buffer":0,
			"byteLength":744,
			"byteOffset":9156,
			"target":34963
		},
		{
			"buffer":0,
			"byteLength":2304,
			"byteOffset":9900,
			"target":34962
		},
		{
			"buffer":0,
			"byteLength":2304,
			"byteOffset":12204,
			"target":34962
		},
		{
			"buffer":0,
			"byteLength":2304,
			"byteOffset":14508,
			"target":34962
		},
		{
			"buffer":0,
			"byteLength":2304,
			"byteOffset":16812,
			"target":34962
		},
		{
			"buffer":0,
			"byteLength":2304,
			"byteOffset":19116,
			"target":34962
		},
		{
			"buffer":0,
			"byteLength":2304,
			"byteOffset":21420,
			"target":34962
		},
		{
			"buffer":0,
			"byteLength":2304,
			"byteOffset":23724,
			"target":34962
		},
		{
			"buffer":0,
			"byteLength":2304,
			"byteOffset":26028,
			"target":34962
		},
		{
			"buffer":0,
			"byteLength":2304,
			"byteOffset":28332,
			"target":34962
		},
		{
			"buffer":0,
			"byteLength":2304,
			"byteOffset":30636,
			"target":34962
		},
		{
			"buffer":0,
			"byteLength":2304,
			"byteOffset":32940,
			"target":34962
		},
		{
			"buffer":0,
			"byteLength":2304,
			"byteOffset":35244,
			"target":34962
		},
		{
			"buffer":0,
			"byteLength":2304,
			"byteOffset":37548,
			"target":34962
		},
		{
			"buffer":0,
			"byteLength":2304,
			"byteOffset":39852,
			"target":34962
		},
		{
			"buffer":0,
			"byteLength":2304,
			"byteOffset":42156,
			"target":34962
		},
		{
			"buffer":0,
			"byteLength":2304,
			"byteOffset":44460,
			"target":34962
		},
		{
			"buffer":0,
			"byteLength":2304,
			"byteOffset":46764,
			"target":34962
		},
		{
			"buffer":0,
			"byteLength":2304,
			"byteOffset":49068,
			"target":34962
		},
		{
			"buffer":0,
			"byteLength":2304,
			"byteOffset":51372,
			"target":34962
		},
		{
			"buffer":0,
			"byteLength":2304,
			"byteOffset":53676,
			"target":34962
		},
		{
			"buffer":0,
			"byteLength":2304,
			"byteOffset":55980,
			"target":34962
		},
		{
			"buffer":0,
			"byteLength":2304,
			"byteOffset":58284,
			"target":34962
		},
		{
			"buffer":0,
			"byteLength":1536,
			"byteOffset":60588,
			"target":34962
		},
		{
			"buffer":0,
			"byteLength":1536,
			"byteOffset":62124,
			"target":34962
		},
		{
			"buffer":0,
			"byteLength":1536,
			"byteOffset":63660,
			"target":34962
		},
		{
			"buffer":0,
			"byteLength":1536,
			"byteOffset":65196,
			"target":34962
		}
	],
	"buffers":[
		{
			"byteLength":66732,
			"uri":"data:application/octet-stream;base64,"
		}
	]
}
