<svg width="42" height="42" viewBox="0 0 42 42" fill="none" xmlns="http://www.w3.org/2000/svg">
<circle cx="21" cy="21" r="21" fill="black"/>
<g clip-path="url(#clip0_3_37)">
<path d="M21.0341 9C18.654 9 16.3273 9.70146 14.3483 11.0157C12.3693 12.3299 10.8269 14.1978 9.91604 16.3833C9.00521 18.5687 8.7669 20.9735 9.23124 23.2936C9.69557 25.6136 10.8417 27.7447 12.5247 29.4174C14.2077 31.0901 16.352 32.2292 18.6863 32.6907C21.0207 33.1522 23.4404 32.9153 25.6393 32.0101C27.8383 31.1048 29.7177 29.5719 31.04 27.605C32.3624 25.6382 33.0682 23.3258 33.0682 20.9602C33.0678 17.7883 31.7998 14.7464 29.543 12.5035C27.2863 10.2606 24.2256 9.00039 21.0341 9ZM21.0341 30.0214C19.2309 30.0214 17.4682 29.4899 15.9689 28.4943C14.4696 27.4986 13.3011 26.0835 12.611 24.4278C11.921 22.7721 11.7404 20.9502 12.0922 19.1925C12.444 17.4348 13.3123 15.8203 14.5874 14.5531C15.8624 13.2859 17.4869 12.4229 19.2554 12.0732C21.024 11.7236 22.8571 11.9031 24.523 12.5889C26.1889 13.2747 27.6128 14.4361 28.6146 15.9262C29.6164 17.4163 30.1511 19.1681 30.1511 20.9602C30.1488 23.3627 29.1875 25.6661 27.4782 27.3648C25.7689 29.0636 23.4513 30.019 21.0341 30.0214Z" fill="#2C2C2C"/>
<path d="M19.5748 22.708C19.9757 23.0655 20.4954 23.2632 21.034 23.2632C21.5727 23.2632 22.0924 23.0655 22.4933 22.708V19.2331C22.0928 18.8747 21.573 18.6764 21.034 18.6764C20.4951 18.6764 19.9753 18.8747 19.5748 19.2331V22.708ZM21.034 14.8101C20.2205 14.81 19.415 14.9694 18.6635 15.2792C17.9121 15.5889 17.2295 16.0429 16.6548 16.6152L18.714 18.6648C19.3292 18.0535 20.1634 17.71 21.0333 17.71C21.9032 17.71 22.7374 18.0535 23.3526 18.6648L25.4148 16.6152C24.8398 16.0425 24.1568 15.5882 23.4048 15.2784C22.6528 14.9686 21.8466 14.8095 21.0326 14.8101H21.034ZM23.3555 23.2822C23.0511 23.5851 22.6895 23.8253 22.2916 23.9893C21.8936 24.1532 21.467 24.2376 21.0363 24.2376C20.6055 24.2376 20.1789 24.1532 19.781 23.9893C19.383 23.8253 19.0215 23.5851 18.717 23.2822L16.6578 25.3259C17.2329 25.898 17.9158 26.3518 18.6674 26.6614C19.4191 26.9711 20.2248 27.1304 21.0385 27.1304C21.8522 27.1304 22.6579 26.9711 23.4095 26.6614C24.1612 26.3518 24.8441 25.898 25.4192 25.3259L23.3555 23.2822ZM21.0296 32.9308C21.0813 32.2439 20.8995 31.5596 20.5132 30.9877C20.1269 30.4158 19.5585 29.9894 18.8992 29.7769H18.8874C17.1517 29.3494 15.5806 28.4246 14.369 27.1174C13.1575 25.8102 12.359 24.1781 12.0726 22.4238H18.117C17.8815 21.9762 17.7586 21.4786 17.7586 20.9735C17.7586 20.4684 17.8815 19.9708 18.117 19.5232H12.0666C12.302 18.0604 12.8956 16.6775 13.7952 15.4963C14.6949 14.3151 15.8729 13.3719 17.2256 12.7496C18.5783 12.1274 20.0642 11.8453 21.5524 11.928C23.0406 12.0108 24.4856 12.4559 25.76 13.2243C26.3694 13.5878 27.0915 13.717 27.7902 13.5876C28.4889 13.4582 29.1158 13.0792 29.5526 12.522C28.1544 11.1295 26.4322 10.1014 24.5387 9.52857C22.6451 8.95576 20.6387 8.85599 18.697 9.2381C16.7554 9.62021 14.9386 10.4724 13.4076 11.7192C11.8765 12.9659 10.6786 14.5688 9.91982 16.3857C9.16106 18.2026 8.86494 20.1774 9.05769 22.1353C9.25044 24.0931 9.92611 25.9734 11.0248 27.6097C12.1236 29.246 13.6114 30.5876 15.3566 31.5158C17.1017 32.444 19.0503 32.93 21.0296 32.9308Z" fill="#ffffff"/>
</g>
<defs>
<clipPath id="clip0_3_37">
<rect width="24" height="24" fill="white" transform="translate(9 9)"/>
</clipPath>
</defs>
</svg>
