<svg width="42" height="42" viewBox="0 0 42 42" fill="none" xmlns="http://www.w3.org/2000/svg">
<circle cx="21" cy="21" r="21" fill="black"/>
<path fill-rule="evenodd" clip-rule="evenodd" d="M21 9C14.37 9 9 14.37 9 21C9 26.31 12.435 30.795 17.205 32.385C17.805 32.49 18.03 32.13 18.03 31.815C18.03 31.53 18.015 30.585 18.015 29.58C15 30.135 14.22 28.845 13.98 28.17C13.845 27.825 13.26 26.76 12.75 26.475C12.33 26.25 11.73 25.695 12.735 25.68C13.68 25.665 14.355 26.55 14.58 26.91C15.66 28.725 17.385 28.215 18.075 27.9C18.18 27.12 18.495 26.595 18.84 26.295C16.17 25.995 13.38 24.96 13.38 20.37C13.38 19.065 13.845 17.985 14.61 17.145C14.49 16.845 14.07 15.615 14.73 13.965C14.73 13.965 15.735 13.65 18.03 15.195C18.99 14.925 20.01 14.79 21.03 14.79C22.05 14.79 23.07 14.925 24.03 15.195C26.325 13.635 27.33 13.965 27.33 13.965C27.99 15.615 27.57 16.845 27.45 17.145C28.215 17.985 28.68 19.05 28.68 20.37C28.68 24.975 25.875 25.995 23.205 26.295C23.64 26.67 24.015 27.39 24.015 28.515C24.015 30.12 24 31.41 24 31.815C24 32.13 24.225 32.505 24.825 32.385C29.565 30.795 33 26.295 33 21C33 14.37 27.63 9 21 9Z" fill="#ffffff"/>
</svg>
