<svg width="42" height="42" viewBox="0 0 42 42" fill="none" xmlns="http://www.w3.org/2000/svg">
<circle cx="21" cy="21" r="21" fill="black"/>
<g clip-path="url(#clip0_3_46)">
<path d="M21 33C27.6274 33 33 27.6274 33 21C33 14.3726 27.6274 9 21 9C14.3726 9 9 14.3726 9 21C9 27.6274 14.3726 33 21 33Z" fill="#ffffff"/>
<path d="M23.7763 14.1313H18.2237C15.9671 14.1313 14.1313 15.9671 14.1313 18.2237V23.7763C14.1313 26.0327 15.9671 27.8687 18.2237 27.8687H23.7763C26.0328 27.8687 27.8687 26.0328 27.8687 23.7763V18.2237C27.8687 15.9671 26.0328 14.1313 23.7763 14.1313ZM26.4867 23.7763C26.4867 25.2732 25.2732 26.4867 23.7763 26.4867H18.2237C16.7268 26.4867 15.5133 25.2732 15.5133 23.7763V18.2237C15.5133 16.7268 16.7268 15.5133 18.2237 15.5133H23.7763C25.2732 15.5133 26.4867 16.7269 26.4867 18.2237V23.7763Z" fill="black"/>
<path d="M21 17.447C19.0409 17.447 17.447 19.0409 17.447 21C17.447 22.959 19.0409 24.5529 21 24.5529C22.9591 24.5529 24.5529 22.9591 24.5529 21C24.5529 19.0409 22.9591 17.447 21 17.447ZM21 23.1709C19.801 23.1709 18.8289 22.1991 18.8289 21C18.8289 19.8009 19.801 18.8289 21 18.8289C22.199 18.8289 23.1709 19.8009 23.1709 21C23.1709 22.199 22.199 23.1709 21 23.1709Z" fill="black"/>
</g>
<defs>
<clipPath id="clip0_3_46">
<rect width="24" height="24" fill="white" transform="translate(9 9)"/>
</clipPath>
</defs>
</svg>
