<svg width="42" height="42" viewBox="0 0 42 42" fill="none" xmlns="http://www.w3.org/2000/svg">
<circle cx="21" cy="21" r="21" fill="black"/>
<path d="M21 9C14.3695 9 9 14.3695 9 21C9 27.6305 14.3695 33 21 33C27.6305 33 33 27.6305 33 21C33 14.3695 27.6305 9 21 9ZM18.061 25.9729H15.6305V18.1525H18.061V25.9729ZM16.8305 17.1966C16.0678 17.1966 15.5695 16.6576 15.5695 15.9763C15.5695 15.2949 16.078 14.7661 16.861 14.7661C17.6441 14.7661 18.122 15.2949 18.1424 15.9763C18.1424 16.6475 17.6441 17.1966 16.8305 17.1966ZM26.939 25.9729H24.5085V21.6407C24.5085 20.6339 24.1525 19.9424 23.278 19.9424C22.6068 19.9424 22.2102 20.4102 22.0271 20.8576C21.9661 21.0203 21.9458 21.2441 21.9458 21.4678V25.9729H19.5153V20.6441C19.5153 19.6678 19.4847 18.8542 19.4542 18.1525H21.5695L21.6814 19.2407H21.7322C22.0576 18.7322 22.8407 17.9797 24.1424 17.9797C25.739 17.9797 26.939 19.0475 26.939 21.3559V25.9729Z" fill="#ffffff"/>
</svg>
