<svg width="42" height="42" viewBox="0 0 42 42" fill="none" xmlns="http://www.w3.org/2000/svg">
<circle cx="21" cy="21" r="21" fill="black"/>
<path d="M21 9C14.371 9 9 14.371 9 21C9 27.629 14.371 33 21 33C27.629 33 33 27.629 33 21C33 14.371 27.629 9 21 9ZM26.8935 17.221L24.9242 26.5016C24.779 27.1597 24.3871 27.3194 23.8403 27.0097L20.8403 24.7984L19.3935 26.1919C19.2339 26.3516 19.0984 26.4871 18.7887 26.4871L19.0016 23.4339L24.5613 18.4113C24.8032 18.1984 24.5081 18.0774 24.1887 18.2903L17.3177 22.6161L14.3565 21.6919C13.7129 21.4887 13.6984 21.0484 14.4919 20.7387L26.0613 16.2774C26.5984 16.0839 27.0677 16.4081 26.8935 17.221Z" fill="#ffffff"/>
</svg>
