<svg width="42" height="42" viewBox="0 0 42 42" fill="none" xmlns="http://www.w3.org/2000/svg">
<g clip-path="url(#clip0_3_16)">
<path d="M21.0063 42.0126C32.6078 42.0126 42.0126 32.6078 42.0126 21.0063C42.0126 9.40484 32.6078 0 21.0063 0C9.40484 0 0 9.40484 0 21.0063C0 32.6078 9.40484 42.0126 21.0063 42.0126Z" fill="black"/>
<path fill-rule="evenodd" clip-rule="evenodd" d="M27.5608 22.4404C26.4612 22.4404 25.4203 21.982 24.482 21.2371L24.7166 20.1913L24.7312 20.1484C24.9365 19.031 25.5669 17.1544 27.5608 17.1544C29.0562 17.1544 30.2584 18.3434 30.2584 19.8046C30.2584 21.2514 29.0562 22.4404 27.5608 22.4404ZM27.5608 14.4898C25.0244 14.4898 23.0599 16.0943 22.2535 18.7588C21.0367 16.9681 20.0984 14.805 19.5706 13H16.829V19.9478C16.829 21.3231 15.6854 22.4261 14.2779 22.4404C12.8852 22.4261 11.7416 21.3231 11.7416 19.9478V13H9V19.9478C9 22.7986 11.3751 25.1193 14.2779 25.1193C17.1955 25.1193 19.5706 22.7986 19.5706 19.9478V18.7875C20.0984 19.8619 20.7434 20.9649 21.5351 21.9247L19.8638 29.6175H22.664L23.8809 24.0449C24.9365 24.7039 26.168 25.1193 27.5608 25.1193C30.5663 25.1193 33 22.7269 33 19.8046C33 16.8679 30.5663 14.4898 27.5608 14.4898Z" fill="#ffffff"/>
</g>
<defs>
<clipPath id="clip0_3_16">
<rect width="42" height="42" fill="white"/>
</clipPath>
</defs>
</svg>
